<?xml version="1.0" encoding="UTF-8" standalone="no"?>
<svg width="300px" height="233px" viewBox="0 0 300 233" version="1.1" xmlns="http://www.w3.org/2000/svg" xmlns:xlink="http://www.w3.org/1999/xlink">
    <!-- Generator: Sketch 3.6 (26304) - http://www.bohemiancoding.com/sketch -->
    <title>bars-chart-analysis</title>
    <desc>Created with Sketch.</desc>
    <defs></defs>
    <g id="Page-1" stroke="none" stroke-width="1" fill="none" fill-rule="evenodd">
        <g id="bars-chart-analysis" fill="#FFFFFF">
            <g id="Group">
                <path d="M293.952709,198.934729 L243.191379,148.173399 C239.434729,144.41601 234.533498,142.502217 229.60936,142.423892 C248.65197,114.051724 245.65197,75.1714286 220.596798,50.1169951 C192.127094,21.6465517 145.802956,21.6465517 117.333251,50.1169951 C88.8635468,78.5866995 88.8635468,124.910837 117.333251,153.380542 C142.388424,178.434975 181.266502,181.436453 209.640148,162.392365 C209.719212,167.317241 211.631527,172.217734 215.389655,175.975123 L266.150985,226.736453 C273.829064,234.414532 286.274631,234.414532 293.952709,226.736453 C301.630788,219.058374 301.630788,206.61133 293.952709,198.934729 L293.952709,198.934729 Z M204.710099,137.493103 C185.000246,157.203695 152.929803,157.203695 133.219951,137.493103 C113.50936,117.783251 113.50936,85.7128079 133.219951,66.0029557 C152.929803,46.2931034 185.000246,46.2931034 204.710099,66.0029557 C224.419951,85.7128079 224.419951,117.783251 204.710099,137.493103 L204.710099,137.493103 Z" id="Shape"></path>
                <path d="M28.4460591,67.2169951 L14.7783251,67.2169951 C6.61625616,67.2169951 0,73.8332512 0,81.9953202 L0,163.375862 C0,171.537931 6.61625616,178.154187 14.7783251,178.154187 L28.4460591,178.154187 C36.6081281,178.154187 43.2243842,171.537931 43.2243842,163.375862 L43.2243842,81.9953202 C43.2243842,73.8332512 36.6081281,67.2169951 28.4460591,67.2169951 L28.4460591,67.2169951 Z" id="Shape"></path>
                <path d="M109.726847,44.8366995 L109.726847,15.4928571 C109.726847,7.33078818 103.110591,0.71453202 94.9485222,0.71453202 L81.2807882,0.71453202 C73.1187192,0.71453202 66.5024631,7.33078818 66.5024631,15.4928571 L66.5024631,163.375862 C66.5024631,171.537931 73.1187192,178.154187 81.2807882,178.154187 L94.9485222,178.154187 C103.110591,178.154187 109.726847,171.537931 109.726847,163.375862 L109.726847,156.072414 C95.329803,141.055419 87.4197044,121.375123 87.4197044,100.454187 C87.4197044,79.5332512 95.329803,59.8536946 109.726847,44.8366995 L109.726847,44.8366995 Z" id="Shape"></path>
                <path d="M161.451724,67.2169951 L147.783251,67.2169951 C139.621182,67.2169951 133.004926,73.8332512 133.004926,81.9953202 L133.004926,126.009606 C134.289901,127.753448 135.713054,129.413793 137.272167,130.974384 C145.409852,139.112069 156.249015,143.592857 167.793103,143.592857 C170.65936,143.592857 173.481281,143.315025 176.230049,142.775616 L176.230049,81.9953202 C176.230049,73.8332512 169.613793,67.2169951 161.451724,67.2169951 L161.451724,67.2169951 Z" id="Shape"></path>
            </g>
        </g>
    </g>
</svg>