<?xml version="1.0" encoding="UTF-8" standalone="no"?>
<svg width="58px" height="54px" viewBox="0 0 58 54" version="1.1" xmlns="http://www.w3.org/2000/svg" xmlns:xlink="http://www.w3.org/1999/xlink">
    <!-- Generator: Sketch 3.6 (26304) - http://www.bohemiancoding.com/sketch -->
    <title>chat</title>
    <desc>Created with Sketch.</desc>
    <defs></defs>
    <g id="Page-1" stroke="none" stroke-width="1" fill="none" fill-rule="evenodd">
        <g id="chat">
            <g id="Group">
                <path d="M44,16.394 L44,37.535 C44,40.257 41.793,42.464 39.071,42.464 L22,42.535 L12,53.535 L12,42.535 L4.929,42.535 C2.207,42.535 0,40.328 0,37.606 L0,16.465 C0,13.743 2.207,11.536 4.929,11.536 L39.07,11.465 C41.793,11.465 44,13.672 44,16.394 L44,16.394 Z" id="Shape" fill="#FF9800"></path>
                <path d="M22,22.465 L9,22.465 C8.447,22.465 8,22.017 8,21.465 C8,20.913 8.447,20.465 9,20.465 L22,20.465 C22.553,20.465 23,20.913 23,21.465 C23,22.017 22.553,22.465 22,22.465 L22,22.465 Z" id="Shape" fill="#FFFFFF"></path>
                <path d="M35,28.465 L9,28.465 C8.447,28.465 8,28.017 8,27.465 C8,26.913 8.447,26.465 9,26.465 L35,26.465 C35.553,26.465 36,26.913 36,27.465 C36,28.017 35.553,28.465 35,28.465 L35,28.465 Z" id="Shape" fill="#FFFFFF"></path>
                <path d="M35,34.465 L9,34.465 C8.447,34.465 8,34.017 8,33.465 C8,32.913 8.447,32.465 9,32.465 L35,32.465 C35.553,32.465 36,32.913 36,33.465 C36,34.017 35.553,34.465 35,34.465 L35,34.465 Z" id="Shape" fill="#FFFFFF"></path>
                <path d="M53.071,0.535 L18.93,0.465 C16.207,0.465 14,2.672 14,5.394 L14,11.516 L39.071,11.464 C41.793,11.464 44,13.671 44,16.394 L44,34.835 L51,42.535 L51,31.535 L53.071,31.535 C55.793,31.535 58,29.328 58,26.606 L58,5.465 C58,2.742 55.793,0.535 53.071,0.535 L53.071,0.535 Z" id="Shape" fill="#E65100"></path>
            </g>
        </g>
    </g>
</svg>